<svg width="24" height="25" viewBox="0 0 24 25" fill="none" xmlns="http://www.w3.org/2000/svg">
<g clip-path="url(#clip0)">
<path d="M16.1714 3.97613C15.833 3.62368 15.3004 3.62368 14.962 3.97613C14.6351 4.31667 14.6351 4.88344 14.962 5.22319L21.0942 11.6109H0.858746C0.387035 11.6109 -8.39233e-05 12.0015 -8.39233e-05 12.4928C-8.39233e-05 12.9842 0.387035 13.3874 0.858746 13.3874H21.0942L14.962 19.7633C14.6351 20.1157 14.6351 20.6833 14.962 21.023C15.3004 21.3755 15.833 21.3755 16.1714 21.023L23.7553 13.1231C24.0822 12.7826 24.0822 12.2158 23.7553 11.876L16.1714 3.97613Z" fill="#FCD3AC"/>
</g>
<defs>
<clipPath id="clip0">
<rect width="24" height="25" fill="white" transform="matrix(-1 0 0 1 24 0)"/>
</clipPath>
</defs>
</svg>
